#!OML:ASF H:\Dans Jumps\Project 1\Capture day 1\Session 1\subject.ASF
:FULLY-SPECIFIED
:DEGREES
239
root 0.140814 16.9744 -8.56024 19.5482 0.724586 -1.15657
lowerback 3.30688 0.227894 -2.85047
upperback -2.00796 0.210564 1.33184
thorax -3.94427 0.200599 2.9627
lowerneck -16.288 -0.239539 -3.27041
upperneck 16.9487 0.2006 1.44326
head 7.92209 0.0273698 1.04015
rclavicle -4.27387e-015 -1.73937e-014
rhumerus -11.7173 -7.3091 -79.3592
rradius 29.2655
rwrist 37.5162
rhand -20.3685 -25.3511
rfingers 7.12502
rthumb 5.98407 -55.2466
lclavicle -4.27387e-015 -1.73937e-014
lhumerus -9.84319 4.60248 73.9497
lradius 22.4547
lwrist 5.7128
lhand -26.5642 -7.2242
lfingers 7.12502
lthumb 0.000822547 22.7555
rfemur -15.6982 -7.35595 21.535
rtibia 37.2862
rfoot -19.7398 -8.77368
rtoes -26.0483
lfemur -19.1832 9.12589 -16.3059
ltibia 41.5603
lfoot -15.4339 5.79552
ltoes -35.1949
240
root 0.147832 17.2077 -8.21654 18.5658 0.621279 -1.13778
lowerback 1.75791 0.216741 -2.72314
upperback -1.824 0.237929 1.24979
thorax -2.87861 0.18989 2.80436
lowerneck -14.9069 -0.221208 -3.34938
upperneck 17.6599 0.197211 1.43217
head 7.9145 0.010647 1.04984
rclavicle -4.94477e-015 4.57205e-015
rhumerus -13.1289 -7.16127 -79.1359
rradius 29.1591
rwrist 37.5917
rhand -20.1298 -25.1781
rfingers 7.12502
rthumb 6.21449 -55.0669
lclavicle -4.94477e-015 4.57205e-015
lhumerus -11.1818 4.03787 73.653
lradius 22.294
lwrist 7.24935
lhand -26.159 -7.24252
lfingers 7.12502
lthumb 0.392219 22.7369
rfemur -12.6033 -7.48971 20.9588
rtibia 34.7954
rfoot -15.135 -6.4636
rtoes -26.3917
lfemur -16.2039 8.43614 -15.8235
ltibia 39.074
lfoot -10.9802 2.79212
ltoes -34.7008
241
root 0.153077 17.4536 -7.87394 17.6023 0.534446 -1.18314
lowerback 0.280597 0.208295 -2.56518
upperback -1.6393 0.26495 1.20107
thorax -1.85694 0.181642 2.66704
lowerneck -13.5788 -0.187412 -3.39519
upperneck 18.4291 0.211657 1.40181
head 7.93282 0.00214236 1.05029
rclavicle 4.5969e-015 1.59028e-015
rhumerus -14.5184 -7.01716 -78.9059
rradius 28.9796
rwrist 37.7319
rhand -19.6979 -24.9543
rfingers 7.12502
rthumb 6.63144 -54.8305
lclavicle 4.5969e-015 1.59028e-015
lhumerus -12.5602 3.3341 73.4114
lradius 22.0779
lwrist 8.60456
lhand -25.6425 -7.13609
lfingers 7.12502
lthumb 0.890982 22.8418
rfemur -9.77766 -7.42863 20.4747
rtibia 32.4946
rfoot -9.79982 -4.66434
rtoes -25.7793
lfemur -13.4803 7.64769 -15.3337
ltibia 36.7066
lfoot -5.67683 0.140212
ltoes -33.7493
242
root 0.156693 17.7088 -7.53451 16.688 0.465273 -1.28825
lowerback -1.1364 0.196542 -2.37368
upperback -1.45072 0.281416 1.1734
thorax -0.867487 0.170422 2.53562
lowerneck -12.3623 -0.136812 -3.39133
upperneck 19.2398 0.242358 1.3707
head 7.98283 0.0045543 1.04453
rclavicle 2.33572e-015 -7.45443e-017
rhumerus -15.8542 -6.90432 -78.6884
rradius 28.7652
rwrist 37.8571
rhand -19.1344 -24.6815
rfingers 7.12502
rthumb 7.17545 -54.5399
lclavicle 2.33572e-015 -7.45443e-017
lhumerus -13.9394 2.53095 73.2121
lradius 21.7894
lwrist 9.56125
lhand -25.0898 -6.87814
lfingers 7.12502
lthumb 1.42479 23.0969
rfemur -7.28638 -7.24883 20.1049
rtibia 30.4469
rfoot -3.84537 -3.60813
rtoes -24.0058
lfemur -11.0845 6.83544 -14.855
ltibia 34.5519
lfoot 0.300784 -1.99404
ltoes -32.237
243
root 0.158674 17.9698 -7.2007 15.868 0.414822 -1.44947
lowerback -2.50957 0.180055 -2.14761
upperback -1.26737 0.283719 1.15679
thorax 0.0910043 0.154672 2.39802
lowerneck -11.2835 -0.0713255 -3.31346
upperneck 20.0546 0.283457 1.34439
head 8.0579 0.0181281 1.02936
rclavicle -1.99406e-015 1.10574e-015
rhumerus -17.1184 -6.88278 -78.492
rradius 28.5451
rwrist 37.9279
rhand -18.5384 -24.4042
rfingers 7.12502
rthumb 7.75067 -54.2421
lclavicle -1.99406e-015 1.10574e-015
lhumerus -15.2999 1.67429 73.0439
lradius 21.4335
lwrist 9.98046
lhand -24.5547 -6.51989
lfingers 7.12502
lthumb 1.94166 23.451
rfemur -5.19626 -7.03376 19.8634
rtibia 28.7302
rfoot 2.49693 -3.36639
rtoes -20.6124
lfemur -9.10738 6.09997 -14.3933
ltibia 32.7467
lfoot 6.72918 -3.5275
ltoes -29.7014
244
root 0.159299 18.2338 -6.87447 15.1787 0.393802 -1.64535
lowerback -3.85722 0.15382 -1.90322
upperback -1.08931 0.26446 1.1446
thorax 1.02992 0.130843 2.25509
lowerneck -10.3621 0.000800018 -3.17444
upperneck 20.8281 0.325084 1.33894
head 8.14743 0.0396755 1.01087
rclavicle 1.95679e-016 2.0686e-015
rhumerus -18.2945 -6.98598 -78.3099
rradius 28.3497
rwrist 37.9174
rhand -18.0253 -24.1451
rfingers 7.12502
rthumb 8.24591 -53.9641
lclavicle 1.95679e-016 2.0686e-015
lhumerus -16.6118 0.856133 72.9
lradius 21.0284
lwrist 9.79326
lhand -24.089 -6.11382
lfingers 7.12502
lthumb 2.39136 23.8525
rfemur -3.5481 -6.87914 19.7353
rtibia 27.4298
rfoot 8.88618 -3.81456
rtoes -15.2983
lfemur -7.62455 5.53293 -13.9647
ltibia 31.4424
lfoot 13.1314 -4.42128
ltoes -26.1193
245
root 0.158724 18.4976 -6.55838 14.6488 0.429406 -1.85959
lowerback -5.18371 0.111567 -1.65076
upperback -0.925763 0.215174 1.1345
thorax 1.94318 0.0949854 2.10804
lowerneck -9.56695 0.0711513 -2.99223
upperneck 21.5023 0.355973 1.36558
head 8.22707 0.0643114 0.994208
rclavicle 3.69615e-015 9.79014e-015
rhumerus -19.392 -7.233 -78.1279
rradius 28.2081
rwrist 37.8328
rhand -17.6597 -23.9548
rfingers 7.12502
rthumb 8.59871 -53.7597
lclavicle 3.69615e-015 9.79014e-015
lhumerus -17.8577 0.1567 72.7723
lradius 20.5919
lwrist 9.05667
lhand -23.7109 -5.74185
lfingers 7.12502
lthumb 2.75659 24.2201
rfemur -2.36336 -6.84529 19.7137
rtibia 26.6254
rfoot 14.7484 -4.67526
rtoes -8.61376
lfemur -6.69586 5.19896 -13.5672
ltibia 30.7759
lfoot 18.8405 -4.73014
ltoes -21.9516
246
root 0.156897 18.7587 -6.25513 14.2768 0.529313 -2.05988
lowerback -6.45599 0.0514522 -1.42794
upperback -0.782508 0.135607 1.12554
thorax 2.80653 0.0469243 1.97483
lowerneck -8.85961 0.130552 -2.80506
upperneck 22.0348 0.366544 1.43544
head 8.2757 0.085833 0.988279
rclavicle -1.77664e-015 8.94531e-016
rhumerus -20.4195 -7.62754 -77.9293
rradius 28.1223
rwrist 37.6984
rhand -17.4959 -23.8408
rfingers 7.12502
rthumb 8.75677 -53.6391
lclavicle -1.77664e-015 8.94531e-016
lhumerus -19.0292 -0.349695 72.6574
lradius 20.1504
lwrist 7.90423
lhand -23.4229 -5.50147
lfingers 7.12502
lthumb 3.03469 24.4567
rfemur -1.64472 -6.89647 19.7732
rtibia 26.3829
rfoot 19.6092 -5.53986
rtoes -1.42045
lfemur -6.32986 5.09698 -13.2229
ltibia 30.8246
lfoot 23.2954 -4.62135
ltoes -17.8139
247
root 0.153711 19.0143 -5.96753 14.0375 0.712745 -2.22112
lowerback -7.61595 -0.0343662 -1.26768
upperback -0.656915 0.0192217 1.12533
thorax 3.59057 -0.0173849 1.87914
lowerneck -8.21714 0.181148 -2.63477
upperneck 22.4059 0.366491 1.53068
head 8.28215 0.105087 0.991627
rclavicle 4.07509e-015 2.28602e-015
rhumerus -21.3761 -8.1492 -77.6959
rradius 28.0902
rwrist 37.5566
rhand -17.4719 -23.8216
rfingers 7.12502
rthumb 8.77996 -53.6189
lclavicle 4.07509e-015 2.28602e-015
lhumerus -20.1018 -0.616153 72.5618
lradius 19.7135
lwrist 6.55067
lhand -23.2306 -5.38357
lfingers 7.12502
lthumb 3.22038 24.5719
rfemur -1.37287 -6.96619 19.9009
rtibia 26.7392
rfoot 23.1971 -6.02764
rtoes 5.13461
lfemur -6.50121 5.16048 -12.9493
ltibia 31.5875
lfoot 26.2528 -4.35183
ltoes -14.31
